<?xml version="1.0" standalone="no"?>
<!DOCTYPE svg PUBLIC "-//W3C//DTD SVG 20010904//EN"
 "http://www.w3.org/TR/2001/REC-SVG-20010904/DTD/svg10.dtd">
<svg version="1.0" xmlns="http://www.w3.org/2000/svg"
 width="585.000000pt" height="475.000000pt" viewBox="0 0 585.000000 475.000000"
 preserveAspectRatio="xMidYMid meet">

<g transform="translate(0.000000,475.000000) scale(0.100000,-0.100000)"
fill="#000000" stroke="none">
<path d="M2677 3203 c-4 -3 -7 -71 -7 -150 l0 -143 -417 -2 -418 -3 -3 -112
-3 -113 126 0 c69 0 125 -4 125 -8 0 -22 -95 -190 -144 -255 -31 -41 -56 -77
-56 -79 0 -10 170 -148 182 -148 12 0 38 35 93 122 9 15 32 62 50 105 19 42
36 71 38 63 66 -219 194 -457 321 -597 l56 -61 -42 -35 c-189 -152 -488 -309
-721 -377 -43 -13 -79 -26 -82 -29 -2 -4 30 -47 70 -96 51 -62 79 -89 92 -87
43 7 248 89 368 147 139 68 303 170 400 251 33 28 66 53 73 58 7 4 44 -16 95
-53 205 -149 430 -271 656 -358 l116 -44 31 35 c17 19 52 62 77 95 54 68 54
69 -43 91 -132 31 -367 139 -523 240 -108 70 -227 159 -227 169 0 5 16 28 35
51 146 174 259 419 318 685 l24 110 202 3 201 2 0 115 0 115 -420 0 -420 0 0
150 0 150 -108 0 c-60 0 -112 -3 -115 -7z m423 -540 c0 -40 -51 -226 -86 -312
-40 -102 -111 -224 -181 -313 l-47 -59 -43 43 c-63 61 -138 174 -188 281 -40
86 -104 271 -120 345 l-7 32 336 0 c313 0 336 -1 336 -17z"/>
</g>
</svg>
